<svg width="253" height="82" viewBox="0 0 253 82" fill="none" xmlns="http://www.w3.org/2000/svg">
<path d="M96.4 22H103.02C104.553 22 105.913 22.2867 107.1 22.86C108.287 23.4333 109.207 24.2467 109.86 25.3C110.513 26.3533 110.84 27.5867 110.84 29C110.84 30.4133 110.513 31.6467 109.86 32.7C109.207 33.7533 108.287 34.5667 107.1 35.14C105.913 35.7133 104.553 36 103.02 36H96.4V22ZM102.86 32.84C104.06 32.84 105.02 32.5 105.74 31.82C106.473 31.14 106.84 30.2 106.84 29C106.84 27.8 106.473 26.86 105.74 26.18C105.02 25.5 104.06 25.16 102.86 25.16H100.36V32.84H102.86ZM123.823 30.6C123.823 30.6267 123.803 30.94 123.763 31.54H115.883C116.043 32.1 116.35 32.5333 116.803 32.84C117.27 33.1333 117.85 33.28 118.543 33.28C119.063 33.28 119.51 33.2067 119.883 33.06C120.27 32.9133 120.657 32.6733 121.043 32.34L123.043 34.42C121.99 35.5933 120.45 36.18 118.423 36.18C117.157 36.18 116.043 35.94 115.083 35.46C114.123 34.98 113.377 34.3133 112.843 33.46C112.323 32.6067 112.063 31.64 112.063 30.56C112.063 29.4933 112.317 28.54 112.823 27.7C113.343 26.8467 114.057 26.18 114.963 25.7C115.87 25.22 116.89 24.98 118.023 24.98C119.103 24.98 120.083 25.2067 120.963 25.66C121.843 26.1 122.537 26.7467 123.043 27.6C123.563 28.44 123.823 29.44 123.823 30.6ZM118.043 27.68C117.457 27.68 116.963 27.8467 116.563 28.18C116.177 28.5133 115.93 28.9667 115.823 29.54H120.263C120.157 28.9667 119.903 28.5133 119.503 28.18C119.117 27.8467 118.63 27.68 118.043 27.68ZM125.575 21.16H129.375V36H125.575V21.16ZM131.845 25.16H135.645V36H131.845V25.16ZM133.745 23.96C133.052 23.96 132.492 23.7667 132.065 23.38C131.638 22.9933 131.425 22.5133 131.425 21.94C131.425 21.3667 131.638 20.8867 132.065 20.5C132.492 20.1133 133.052 19.92 133.745 19.92C134.438 19.92 134.998 20.1067 135.425 20.48C135.852 20.84 136.065 21.3067 136.065 21.88C136.065 22.48 135.852 22.98 135.425 23.38C134.998 23.7667 134.438 23.96 133.745 23.96ZM143.655 36.18C142.455 36.18 141.381 35.94 140.435 35.46C139.488 34.98 138.748 34.3133 138.215 33.46C137.695 32.6067 137.435 31.64 137.435 30.56C137.435 29.48 137.695 28.52 138.215 27.68C138.748 26.8267 139.488 26.1667 140.435 25.7C141.381 25.22 142.455 24.98 143.655 24.98C144.881 24.98 145.941 25.2467 146.835 25.78C147.728 26.3 148.361 27.0267 148.735 27.96L145.795 29.46C145.301 28.4867 144.581 28 143.635 28C142.955 28 142.388 28.2267 141.935 28.68C141.495 29.1333 141.275 29.76 141.275 30.56C141.275 31.3733 141.495 32.0133 141.935 32.48C142.388 32.9333 142.955 33.16 143.635 33.16C144.581 33.16 145.301 32.6733 145.795 31.7L148.735 33.2C148.361 34.1333 147.728 34.8667 146.835 35.4C145.941 35.92 144.881 36.18 143.655 36.18ZM150.165 25.16H153.965V36H150.165V25.16ZM152.065 23.96C151.372 23.96 150.812 23.7667 150.385 23.38C149.959 22.9933 149.745 22.5133 149.745 21.94C149.745 21.3667 149.959 20.8867 150.385 20.5C150.812 20.1133 151.372 19.92 152.065 19.92C152.759 19.92 153.319 20.1067 153.745 20.48C154.172 20.84 154.385 21.3067 154.385 21.88C154.385 22.48 154.172 22.98 153.745 23.38C153.319 23.7667 152.759 23.96 152.065 23.96ZM161.875 36.18C160.715 36.18 159.668 35.94 158.735 35.46C157.802 34.98 157.068 34.3133 156.535 33.46C156.015 32.6067 155.755 31.64 155.755 30.56C155.755 29.4933 156.015 28.5333 156.535 27.68C157.068 26.8267 157.795 26.1667 158.715 25.7C159.648 25.22 160.702 24.98 161.875 24.98C163.048 24.98 164.102 25.22 165.035 25.7C165.968 26.1667 166.695 26.8267 167.215 27.68C167.735 28.52 167.995 29.48 167.995 30.56C167.995 31.64 167.735 32.6067 167.215 33.46C166.695 34.3133 165.968 34.98 165.035 35.46C164.102 35.94 163.048 36.18 161.875 36.18ZM161.875 33.16C162.542 33.16 163.088 32.9333 163.515 32.48C163.942 32.0133 164.155 31.3733 164.155 30.56C164.155 29.76 163.942 29.1333 163.515 28.68C163.088 28.2267 162.542 28 161.875 28C161.208 28 160.662 28.2267 160.235 28.68C159.808 29.1333 159.595 29.76 159.595 30.56C159.595 31.3733 159.808 32.0133 160.235 32.48C160.662 32.9333 161.208 33.16 161.875 33.16ZM181.155 25.16V36H177.535V34.84C177.135 35.28 176.655 35.6133 176.095 35.84C175.535 36.0667 174.942 36.18 174.315 36.18C172.915 36.18 171.795 35.7667 170.955 34.94C170.128 34.1133 169.715 32.8733 169.715 31.22V25.16H173.515V30.6C173.515 31.4133 173.668 32.0067 173.975 32.38C174.282 32.7533 174.728 32.94 175.315 32.94C175.915 32.94 176.402 32.7333 176.775 32.32C177.162 31.8933 177.355 31.2467 177.355 30.38V25.16H181.155ZM187.543 36.18C186.636 36.18 185.743 36.08 184.863 35.88C183.983 35.6667 183.276 35.3933 182.743 35.06L183.883 32.46C184.376 32.7667 184.963 33.0133 185.643 33.2C186.323 33.3733 186.996 33.46 187.663 33.46C188.276 33.46 188.709 33.4 188.963 33.28C189.229 33.1467 189.363 32.96 189.363 32.72C189.363 32.48 189.203 32.3133 188.883 32.22C188.576 32.1133 188.083 32.0133 187.403 31.92C186.536 31.8133 185.796 31.6733 185.183 31.5C184.583 31.3267 184.063 31.0067 183.623 30.54C183.183 30.0733 182.963 29.42 182.963 28.58C182.963 27.8867 183.169 27.2733 183.583 26.74C183.996 26.1933 184.596 25.7667 185.383 25.46C186.183 25.14 187.136 24.98 188.243 24.98C189.029 24.98 189.809 25.06 190.583 25.22C191.356 25.38 192.003 25.6067 192.523 25.9L191.383 28.48C190.423 27.9467 189.383 27.68 188.263 27.68C187.663 27.68 187.223 27.7533 186.943 27.9C186.663 28.0333 186.523 28.2133 186.523 28.44C186.523 28.6933 186.676 28.8733 186.983 28.98C187.289 29.0733 187.796 29.1733 188.503 29.28C189.396 29.4133 190.136 29.5667 190.723 29.74C191.309 29.9133 191.816 30.2333 192.243 30.7C192.683 31.1533 192.903 31.7933 192.903 32.62C192.903 33.3 192.696 33.9133 192.283 34.46C191.869 34.9933 191.256 35.4133 190.443 35.72C189.643 36.0267 188.676 36.18 187.543 36.18ZM207.521 36.28C206.054 36.28 204.734 35.9733 203.561 35.36C202.401 34.7333 201.487 33.8667 200.821 32.76C200.154 31.6533 199.821 30.4 199.821 29C199.821 27.6 200.154 26.3467 200.821 25.24C201.487 24.1333 202.401 23.2733 203.561 22.66C204.734 22.0333 206.054 21.72 207.521 21.72C208.801 21.72 209.954 21.9467 210.981 22.4C212.007 22.8533 212.861 23.5067 213.541 24.36L211.021 26.64C210.114 25.5467 209.014 25 207.721 25C206.961 25 206.281 25.1667 205.681 25.5C205.094 25.8333 204.634 26.3067 204.301 26.92C203.981 27.52 203.821 28.2133 203.821 29C203.821 29.7867 203.981 30.4867 204.301 31.1C204.634 31.7 205.094 32.1667 205.681 32.5C206.281 32.8333 206.961 33 207.721 33C209.014 33 210.114 32.4533 211.021 31.36L213.541 33.64C212.861 34.4933 212.007 35.1467 210.981 35.6C209.954 36.0533 208.801 36.28 207.521 36.28ZM219.707 24.98C221.507 24.98 222.881 25.3933 223.827 26.22C224.774 27.0333 225.247 28.2867 225.247 29.98V36H221.707V34.6C221.161 35.6533 220.094 36.18 218.507 36.18C217.667 36.18 216.941 36.0333 216.327 35.74C215.714 35.4467 215.247 35.0533 214.927 34.56C214.621 34.0533 214.467 33.48 214.467 32.84C214.467 31.8133 214.861 31.02 215.647 30.46C216.434 29.8867 217.647 29.6 219.287 29.6H221.447C221.381 28.4533 220.614 27.88 219.147 27.88C218.627 27.88 218.101 27.9667 217.567 28.14C217.034 28.3 216.581 28.5267 216.207 28.82L214.927 26.24C215.527 25.84 216.254 25.5333 217.107 25.32C217.974 25.0933 218.841 24.98 219.707 24.98ZM219.567 33.78C220.007 33.78 220.394 33.6733 220.727 33.46C221.061 33.2467 221.301 32.9333 221.447 32.52V31.58H219.807C218.701 31.58 218.147 31.9467 218.147 32.68C218.147 33.0133 218.274 33.28 218.527 33.48C218.781 33.68 219.127 33.78 219.567 33.78ZM232.566 32.2L231.446 33.34V36H227.646V21.16H231.446V28.94L235.326 25.16H239.826L235.326 29.8L240.206 36H235.606L232.566 32.2ZM251.948 30.6C251.948 30.6267 251.928 30.94 251.888 31.54H244.008C244.168 32.1 244.475 32.5333 244.928 32.84C245.395 33.1333 245.975 33.28 246.668 33.28C247.188 33.28 247.635 33.2067 248.008 33.06C248.395 32.9133 248.782 32.6733 249.168 32.34L251.168 34.42C250.115 35.5933 248.575 36.18 246.548 36.18C245.282 36.18 244.168 35.94 243.208 35.46C242.248 34.98 241.502 34.3133 240.968 33.46C240.448 32.6067 240.188 31.64 240.188 30.56C240.188 29.4933 240.442 28.54 240.948 27.7C241.468 26.8467 242.182 26.18 243.088 25.7C243.995 25.22 245.015 24.98 246.148 24.98C247.228 24.98 248.208 25.2067 249.088 25.66C249.968 26.1 250.662 26.7467 251.168 27.6C251.688 28.44 251.948 29.44 251.948 30.6ZM246.168 27.68C245.582 27.68 245.088 27.8467 244.688 28.18C244.302 28.5133 244.055 28.9667 243.948 29.54H248.388C248.282 28.9667 248.028 28.5133 247.628 28.18C247.242 27.8467 246.755 27.68 246.168 27.68Z" fill="black"/>
<path d="M0.365644 15.357C0.165128 6.93537 6.93733 0 15.3614 0H63C71.2843 0 78 6.71573 78 15V50C78 58.2843 71.2843 65 63 65H37.9375C35.4851 65 33.2027 66.2529 31.8861 68.3219L30.6165 70.317C27.8227 74.7072 21.165 73.7945 19.6558 68.8143C18.9538 66.4977 16.9458 64.8172 14.5417 64.5343L11.1909 64.1401C5.63167 63.4861 1.40098 58.841 1.26774 53.245L0.365644 15.357Z" fill="#1C1A1A"/>
<path d="M11.56 19H22.96C25.92 19 28.5333 19.6 30.8 20.8C33.0667 21.9733 34.8267 23.6267 36.08 25.76C37.3333 27.8667 37.96 30.28 37.96 33C37.96 35.72 37.3333 38.1467 36.08 40.28C34.8267 42.3867 33.0667 44.04 30.8 45.24C28.5333 46.4133 25.92 47 22.96 47H11.56V19ZM22.8 44.44C25.2533 44.44 27.4 43.96 29.24 43C31.08 42.0133 32.5067 40.6667 33.52 38.96C34.5333 37.2267 35.04 35.24 35.04 33C35.04 30.76 34.5333 28.7867 33.52 27.08C32.5067 25.3467 31.08 24 29.24 23.04C27.4 22.0533 25.2533 21.56 22.8 21.56H14.52V44.44H22.8ZM56.7669 47.24C53.9935 47.24 51.4869 46.6267 49.2469 45.4C47.0335 44.1733 45.2869 42.48 44.0069 40.32C42.7535 38.1333 42.1269 35.6933 42.1269 33C42.1269 30.3067 42.7535 27.88 44.0069 25.72C45.2869 23.5333 47.0469 21.8267 49.2869 20.6C51.5269 19.3733 54.0335 18.76 56.8069 18.76C58.8869 18.76 60.8069 19.1067 62.5669 19.8C64.3269 20.4933 65.8202 21.5067 67.0469 22.84L65.1669 24.72C62.9802 22.5067 60.2202 21.4 56.8869 21.4C54.6735 21.4 52.6602 21.9067 50.8469 22.92C49.0335 23.9333 47.6069 25.32 46.5669 27.08C45.5535 28.84 45.0469 30.8133 45.0469 33C45.0469 35.1867 45.5535 37.16 46.5669 38.92C47.6069 40.68 49.0335 42.0667 50.8469 43.08C52.6602 44.0933 54.6735 44.6 56.8869 44.6C60.2469 44.6 63.0069 43.48 65.1669 41.24L67.0469 43.12C65.8202 44.4533 64.3135 45.48 62.5269 46.2C60.7669 46.8933 58.8469 47.24 56.7669 47.24Z" fill="#FFECEC"/>
</svg>
